<?xml version="1.0" encoding="UTF-8"?>
<svg width="100pt" height="100pt" version="1.1" viewBox="0 0 100 100" xmlns="http://www.w3.org/2000/svg">
 <g>
  <path d="m89.398 46.5c-2.3008 0-4.1016 1.8008-4.1016 4.1016v28.199h-70.695v-28.301c0-2.3008-1.8008-4.1016-4.1016-4.1016s-4.1016 1.8008-4.1016 4.1016v32.398c0 2.3008 1.8008 4.1016 4.1016 4.1016h78.898c2.3008 0 4.1016-1.8008 4.1016-4.1016v-32.398c0-2.1992-1.8008-4-4.1016-4z"/>
  <path d="m52.699 14.199c-0.10156-0.10156-0.19922-0.19922-0.39844-0.30078-0.10156 0-0.10156-0.10156-0.30078-0.19922-0.60156-0.5-1.3984-0.69922-2.1992-0.69922-0.5 0-1.1016 0.10156-1.6016 0.30078s-1 0.5-1.3984 0.80078l-20 20.199c-0.80078 0.80078-1.1992 1.8984-1.1992 3 0 1.1016 0.5 2 1.1992 2.6992 0.80078 0.80078 1.6992 1.1992 2.8984 1.1992s2.1992-0.39844 2.8984-1.1992l13-13.102v41.602c0 2.3008 1.8008 4.1016 4.1016 4.1016s4.1016-1.8008 4.1016-4.1016v-41.602l13.301 13.102c0.80078 0.80078 1.6992 1.1992 2.8984 1.1992s2.1992-0.39844 2.8984-1.1992c0.80078-0.80078 1.1992-1.8984 1.1992-3s-0.5-2-1.1992-2.6992z"/>
 </g>
</svg>
